<?xml version="1.0" encoding="utf-8"?>
<!-- Generator: Adobe Illustrator 24.1.0, SVG Export Plug-In . SVG Version: 6.00 Build 0)  -->
<svg version="1.1" id="Layer_1" xmlns="http://www.w3.org/2000/svg" xmlns:xlink="http://www.w3.org/1999/xlink" x="0px" y="0px"
	 viewBox="0 0 627 505" style="enable-background:new 0 0 627 505;" xml:space="preserve">
<style type="text/css">
	.st0{fill:#1E40AF;}
	.st1{fill:#FFFFFF;}
</style>
<g>
	<path class="st1" d="M31.8,406.9c-1.1-0.6-2.3-1.1-3.6-1.5c-1.3-0.4-2.6-0.6-3.9-0.6c-1.7,0-3.1,0.4-4.2,1.2s-1.6,1.9-1.6,3.2
		c0,1,0.3,1.9,1,2.6c0.7,0.7,1.5,1.3,2.6,1.8c1.1,0.5,2.2,1,3.4,1.4c1,0.4,2,0.8,3,1.3c1,0.5,1.9,1.1,2.7,1.8
		c0.8,0.7,1.4,1.6,1.9,2.7c0.5,1.1,0.7,2.4,0.7,3.9c0,1.7-0.4,3.3-1.3,4.7c-0.9,1.4-2.1,2.5-3.7,3.3c-1.6,0.8-3.5,1.2-5.7,1.2
		c-1.4,0-2.8-0.2-4.1-0.5c-1.3-0.3-2.5-0.8-3.6-1.3c-1.1-0.5-2.1-1.1-3-1.6l1.9-3.4c0.7,0.5,1.5,1,2.5,1.5c0.9,0.5,1.9,0.8,2.9,1.1
		c1,0.3,2,0.4,3,0.4c1,0,2-0.2,3-0.6c1-0.4,1.8-1,2.5-1.7c0.7-0.8,1-1.8,1-3.1c0-1.1-0.3-2-0.9-2.8c-0.6-0.7-1.4-1.4-2.3-1.9
		c-1-0.5-2-1-3.1-1.4c-1-0.4-2.1-0.8-3.1-1.3c-1.1-0.5-2-1-2.9-1.7c-0.9-0.7-1.6-1.5-2.2-2.5c-0.5-1-0.8-2.2-0.8-3.6
		c0-1.7,0.4-3.2,1.2-4.5c0.8-1.3,2-2.3,3.4-3c1.4-0.7,3.1-1.1,5-1.2c2.1,0,4,0.3,5.6,0.8c1.6,0.5,3,1.1,4.3,1.9L31.8,406.9z"/>
	<path class="st1" d="M38.6,401.1h21.6v4.2h-8.7v28.4h-4.4v-28.4h-8.5V401.1z"/>
	<path class="st1" d="M75.8,401.1c1.6,0,3.2,0.2,4.6,0.7c1.4,0.4,2.6,1.1,3.6,1.9c1,0.9,1.8,1.9,2.4,3.1c0.6,1.2,0.9,2.7,0.9,4.3
		c0,1.3-0.2,2.6-0.6,3.8c-0.4,1.2-1,2.3-1.9,3.4c-0.9,1-2,1.8-3.4,2.4c-1.4,0.6-3.1,0.9-5.2,0.9h-4.8v12h-4.4v-32.5H75.8z
		 M76.2,417.5c1.3,0,2.4-0.2,3.2-0.6c0.9-0.4,1.5-0.9,2-1.5c0.5-0.6,0.8-1.3,1-2c0.2-0.7,0.3-1.4,0.3-2c0-0.7-0.1-1.3-0.3-2
		c-0.2-0.7-0.6-1.4-1.1-2c-0.5-0.6-1.1-1.1-1.9-1.5c-0.8-0.4-1.8-0.6-2.9-0.6h-5v12.2H76.2z M81.6,419.9l8.5,13.7h-5l-8.6-13.5
		L81.6,419.9z"/>
	<path class="st1" d="M100.7,422.1c0,1.5,0.4,2.8,1.1,3.9c0.7,1.2,1.6,2.1,2.8,2.7c1.2,0.7,2.5,1,4,1c1.5,0,2.9-0.3,4.1-1
		c1.2-0.7,2.1-1.6,2.8-2.7c0.7-1.2,1-2.5,1-3.9v-21h4.3v21.2c0,2.4-0.5,4.4-1.6,6.2c-1.1,1.8-2.6,3.1-4.4,4.1
		c-1.8,1-3.9,1.4-6.2,1.4c-2.3,0-4.3-0.5-6.2-1.4c-1.8-1-3.3-2.3-4.4-4.1c-1.1-1.8-1.6-3.8-1.6-6.2v-21.2h4.3V422.1z"/>
	<path class="st1" d="M153.6,431.2c-0.5,0.4-1.3,0.8-2.2,1.2c-0.9,0.4-2,0.8-3.3,1.1c-1.2,0.3-2.6,0.4-4.1,0.4
		c-2.5,0-4.8-0.5-6.8-1.4c-2-0.9-3.7-2.1-5.2-3.6c-1.4-1.5-2.5-3.2-3.3-5.2c-0.8-2-1.1-4.1-1.1-6.3c0-2.4,0.4-4.7,1.2-6.7
		c0.8-2.1,1.9-3.8,3.4-5.4c1.4-1.5,3.1-2.7,5.1-3.5c2-0.8,4.1-1.3,6.5-1.3c1.9,0,3.7,0.3,5.3,0.8c1.6,0.5,3,1.1,4.1,1.9l-1.8,4.1
		c-0.9-0.6-2-1.2-3.3-1.7c-1.3-0.5-2.7-0.8-4.3-0.8c-1.6,0-3.1,0.3-4.5,0.9c-1.4,0.6-2.7,1.5-3.7,2.7s-1.9,2.5-2.5,4
		c-0.6,1.5-0.9,3.1-0.9,4.9c0,1.8,0.3,3.4,0.8,4.9c0.6,1.5,1.3,2.8,2.4,3.9c1,1.1,2.3,2,3.8,2.6c1.5,0.6,3.1,0.9,5,0.9
		c1.6,0,3.1-0.3,4.4-0.8c1.3-0.5,2.4-1.1,3.2-1.7L153.6,431.2z"/>
	<path class="st1" d="M158.5,401.1h21.6v4.2h-8.7v28.4H167v-28.4h-8.5V401.1z"/>
	<path class="st1" d="M191,422.1c0,1.5,0.4,2.8,1.1,3.9c0.7,1.2,1.6,2.1,2.8,2.7c1.2,0.7,2.5,1,4,1c1.5,0,2.9-0.3,4.1-1
		c1.2-0.7,2.1-1.6,2.8-2.7c0.7-1.2,1-2.5,1-3.9v-21h4.3v21.2c0,2.4-0.5,4.4-1.6,6.2c-1.1,1.8-2.6,3.1-4.4,4.1
		c-1.8,1-3.9,1.4-6.2,1.4c-2.3,0-4.3-0.5-6.2-1.4c-1.8-1-3.3-2.3-4.4-4.1c-1.1-1.8-1.6-3.8-1.6-6.2v-21.2h4.3V422.1z"/>
	<path class="st1" d="M228.6,401.1c1.6,0,3.2,0.2,4.6,0.7c1.4,0.4,2.6,1.1,3.6,1.9c1,0.9,1.8,1.9,2.4,3.1c0.6,1.2,0.9,2.7,0.9,4.3
		c0,1.3-0.2,2.6-0.6,3.8c-0.4,1.2-1,2.3-1.9,3.4c-0.9,1-2,1.8-3.4,2.4c-1.4,0.6-3.1,0.9-5.2,0.9h-4.8v12h-4.4v-32.5H228.6z
		 M229,417.5c1.3,0,2.4-0.2,3.2-0.6c0.9-0.4,1.5-0.9,2-1.5c0.5-0.6,0.8-1.3,1-2c0.2-0.7,0.3-1.4,0.3-2c0-0.7-0.1-1.3-0.3-2
		c-0.2-0.7-0.6-1.4-1.1-2c-0.5-0.6-1.1-1.1-1.9-1.5c-0.8-0.4-1.8-0.6-2.9-0.6h-5v12.2H229z M234.4,419.9l8.5,13.7h-5l-8.6-13.5
		L234.4,419.9z"/>
	<path class="st1" d="M249.6,401.1h21.1v4.2H254v9.9h15v4.2h-15v10.1h17.4v4.2h-21.8V401.1z"/>
	<path class="st1" d="M291.1,417.4c0-2.2,0.4-4.4,1.3-6.4s2-3.8,3.6-5.3c1.5-1.5,3.3-2.8,5.3-3.6c2-0.9,4.1-1.3,6.5-1.3
		c2.3,0,4.4,0.4,6.4,1.3c2,0.9,3.8,2.1,5.3,3.6c1.5,1.5,2.8,3.3,3.6,5.3c0.9,2,1.3,4.1,1.3,6.4c0,2.3-0.4,4.5-1.3,6.5
		c-0.9,2-2.1,3.8-3.6,5.3c-1.5,1.5-3.3,2.7-5.3,3.6c-2,0.9-4.1,1.3-6.4,1.3c-2.3,0-4.5-0.4-6.5-1.3c-2-0.8-3.8-2-5.3-3.5
		c-1.5-1.5-2.7-3.3-3.6-5.3C291.6,421.9,291.1,419.7,291.1,417.4z M295.6,417.4c0,1.7,0.3,3.3,0.9,4.8c0.6,1.5,1.5,2.8,2.6,3.9
		c1.1,1.1,2.4,2,3.9,2.7c1.5,0.6,3.1,1,4.8,1c1.7,0,3.3-0.3,4.7-1c1.5-0.6,2.7-1.5,3.8-2.7c1.1-1.1,1.9-2.5,2.6-3.9
		c0.6-1.5,0.9-3.1,0.9-4.8c0-1.7-0.3-3.3-0.9-4.8c-0.6-1.5-1.5-2.8-2.6-4c-1.1-1.1-2.4-2-3.9-2.7c-1.5-0.6-3-1-4.7-1
		c-1.7,0-3.3,0.3-4.8,1c-1.5,0.7-2.8,1.6-3.9,2.7c-1.1,1.1-2,2.5-2.6,4C295.9,414.1,295.6,415.7,295.6,417.4z"/>
	<path class="st1" d="M331.7,401.1H351v4.2h-14.9v10.4h13.1v4.1h-13.1v13.8h-4.4V401.1z"/>
	<path class="st1" d="M372.4,401.1h4.4v32.5h-4.4V401.1z"/>
	<path class="st1" d="M414.3,434.6l-25.2-25.5l1.3,0.3l0.1,24.2h-4.4v-33.5h0.2l24.9,25.6l-1-0.2l-0.1-24.4h4.3v33.6H414.3z"/>
	<path class="st1" d="M421.4,401.1H443v4.2h-8.7v28.4H430v-28.4h-8.5V401.1z"/>
	<path class="st1" d="M450,401.1h21.2v4.2h-16.8v9.9h15v4.2h-15v10.1h17.4v4.2H450V401.1z"/>
	<path class="st1" d="M479.3,401.1h4.4v28.4h16.5v4.2h-20.9V401.1z"/>
	<path class="st1" d="M507.3,401.1h4.4v28.4h16.5v4.2h-20.9V401.1z"/>
	<path class="st1" d="M535.3,401.1h21.2v4.2h-16.8v9.9h15v4.2h-15v10.1h17.4v4.2h-21.8V401.1z"/>
	<path class="st1" d="M588.5,431.2c-0.5,0.4-1.3,0.8-2.2,1.2c-0.9,0.4-2,0.8-3.3,1.1c-1.2,0.3-2.6,0.4-4.1,0.4
		c-2.5,0-4.8-0.5-6.8-1.4c-2-0.9-3.7-2.1-5.2-3.6c-1.4-1.5-2.5-3.2-3.3-5.2c-0.8-2-1.1-4.1-1.1-6.3c0-2.4,0.4-4.7,1.2-6.7
		c0.8-2.1,1.9-3.8,3.4-5.4c1.4-1.5,3.1-2.7,5.1-3.5s4.1-1.3,6.5-1.3c1.9,0,3.7,0.3,5.3,0.8c1.6,0.5,3,1.1,4.1,1.9l-1.8,4.1
		c-0.9-0.6-2-1.2-3.3-1.7s-2.7-0.8-4.3-0.8c-1.6,0-3.1,0.3-4.5,0.9c-1.4,0.6-2.7,1.5-3.7,2.7s-1.9,2.5-2.5,4
		c-0.6,1.5-0.9,3.1-0.9,4.9c0,1.8,0.3,3.4,0.8,4.9c0.6,1.5,1.3,2.8,2.4,3.9c1,1.1,2.3,2,3.8,2.6s3.1,0.9,5,0.9
		c1.6,0,3.1-0.3,4.4-0.8c1.3-0.5,2.4-1.1,3.2-1.7L588.5,431.2z"/>
	<path class="st1" d="M593.5,401.1h21.6v4.2h-8.7v28.4H602v-28.4h-8.5V401.1z"/>
	<path class="st1" d="M37.8,455.7h2.2l-3.6,29.8h17.5l-0.3,2.1H33.9L37.8,455.7z"/>
	<path class="st1" d="M63.8,455.7h19.7l-0.3,2.1H65.8l-1.6,12.8h15.7l-0.3,2.1H63.9l-1.5,12.9h18.1l-0.3,2.1H59.9L63.8,455.7z"/>
	<path class="st1" d="M88,487.6h-2.2l17.6-33.3h0.2l9.4,33.3h-2.5l-8.2-29.6l1.7-0.9L88,487.6z M93.9,475h14.2l0.4,2.1H93.1
		L93.9,475z"/>
	<path class="st1" d="M131.6,455.7c1.2,0,2.3,0.2,3.5,0.5c1.1,0.3,2.2,0.9,3,1.6c0.9,0.7,1.6,1.7,2,2.8c0.5,1.1,0.6,2.5,0.4,4.1
		c-0.2,1.2-0.5,2.4-1,3.5c-0.5,1.1-1.2,2.1-2.1,3c-0.9,0.9-2.1,1.6-3.4,2.2c-1.4,0.5-3,0.8-4.9,0.8h-4.9l-1.7,13.4h-2.2l3.9-32
		H131.6z M129.3,472.1c2.1,0,3.8-0.4,5.1-1.1c1.3-0.8,2.2-1.7,2.8-2.8c0.6-1.1,1-2.2,1.1-3.3c0.1-1,0.1-1.9-0.2-2.7
		c-0.3-0.8-0.7-1.6-1.2-2.2c-0.6-0.6-1.3-1.2-2.2-1.5c-0.9-0.4-1.9-0.6-3-0.6h-5.4l-1.7,14.3H129.3z M133.7,473.1l7.1,14.5h-2.6
		l-7.1-14.5L133.7,473.1z"/>
	<path class="st1" d="M175.6,488.4L175.6,488.4l-21.7-28.6l0.5-0.3l-3.4,28.1h-2.1l4-32.6h0.1l21.7,28.8l-0.6,0l3.4-28.1h2.1
		L175.6,488.4z"/>
	<path class="st1" d="M189.9,455.7h2.2l-3.9,32H186L189.9,455.7z"/>
	<path class="st1" d="M225.2,488.4L225.2,488.4l-21.7-28.6l0.5-0.3l-3.4,28.1h-2.1l4-32.6h0.1l21.7,28.8l-0.6,0l3.4-28.1h2.1
		L225.2,488.4z"/>
	<path class="st1" d="M260,486c-0.7,0.4-1.6,0.8-2.6,1.1c-1,0.3-2.1,0.6-3.3,0.7c-1.2,0.2-2.3,0.3-3.3,0.2c-1.6,0-3.2-0.2-4.6-0.6
		c-1.4-0.4-2.7-0.9-3.8-1.6s-2.2-1.5-3.1-2.4c-0.9-0.9-1.6-1.9-2.2-3.1c-0.6-1.1-1-2.4-1.3-3.6c-0.3-1.3-0.4-2.6-0.3-4
		c0.1-1.6,0.4-3.3,0.9-4.9c0.5-1.6,1.2-3.2,2.2-4.7c0.9-1.5,2.1-2.8,3.5-3.9c1.4-1.1,3-2,4.9-2.7c1.8-0.7,3.9-1,6.3-0.9
		c1.8,0,3.4,0.3,5,0.8c1.6,0.5,3,1.2,4.2,2.1l-1,1.9c-1.1-0.8-2.3-1.4-3.8-1.9c-1.5-0.5-2.9-0.7-4.4-0.7c-2.2,0-4.1,0.3-5.7,0.9
		c-1.7,0.6-3.1,1.4-4.3,2.5c-1.2,1-2.2,2.2-2.9,3.5c-0.8,1.3-1.3,2.7-1.7,4c-0.4,1.4-0.6,2.8-0.7,4.1c0,1.4,0.1,2.8,0.5,4.1
		c0.3,1.3,0.9,2.5,1.6,3.5c0.7,1.1,1.6,2,2.6,2.8c1,0.8,2.2,1.4,3.5,1.9c1.3,0.5,2.8,0.8,4.4,0.9c1.3,0.1,2.6,0,4-0.2
		c1.4-0.2,2.6-0.6,3.7-1l1.1-9.3h-7.2l0.3-2.1h9.5L260,486z"/>
	<path class="st1" d="M282,487.6h-2.2l17.6-33.3h0.2l9.4,33.3h-2.5l-8.2-29.6l1.7-0.9L282,487.6z M287.9,475h14.2l0.4,2.1h-15.3
		L287.9,475z"/>
	<path class="st1" d="M325.3,455.7c2.8,0,4.9,0.5,6.5,1.6s2.3,2.8,2.3,5.2c0,1.2-0.2,2.5-0.6,3.8c-0.4,1.3-1,2.5-2,3.5
		c-0.9,1-2.2,1.7-3.8,2l0-0.2c1.1,0.2,2.1,0.6,3,1.1s1.7,1.4,2.2,2.3c0.6,0.9,0.9,2.1,0.9,3.4c0,1.6-0.3,2.9-0.8,4.1
		s-1.2,2.2-2.2,2.9c-0.9,0.8-2,1.3-3.3,1.7c-1.3,0.4-2.7,0.6-4.2,0.6h-9l3.9-32H325.3z M323.4,485.6c1.9,0,3.5-0.3,4.7-1
		c1.2-0.7,2.1-1.6,2.6-2.7s0.8-2.3,0.8-3.6c0-1.3-0.4-2.4-1.1-3.3s-1.6-1.5-2.7-1.8c-1.1-0.4-2.2-0.6-3.3-0.6h-6.1l-1.5,13H323.4z
		 M324.7,470.6c1.5,0,2.7-0.3,3.6-0.9c0.9-0.6,1.6-1.3,2.1-2.1c0.5-0.8,0.8-1.7,1-2.5c0.2-0.9,0.3-1.6,0.3-2.1c0-1.9-0.6-3.2-1.7-4
		c-1.1-0.8-2.8-1.2-4.9-1.2h-4.9l-1.6,12.9H324.7z"/>
	<path class="st1" d="M344.9,455.7h2.2l-3.9,32h-2.2L344.9,455.7z"/>
	<path class="st1" d="M357.4,455.7h2.2l-3.6,29.8h17.5l-0.3,2.1h-19.7L357.4,455.7z"/>
	<path class="st1" d="M383.4,455.7h2.2l-3.9,32h-2.2L383.4,455.7z"/>
	<path class="st1" d="M393.3,455.7h20.9l-0.3,2.2h-9.4l-3.6,29.8h-2.2l3.6-29.8H393L393.3,455.7z"/>
	<path class="st1" d="M421.9,455.7h2.2l-3.9,32h-2.2L421.9,455.7z"/>
	<path class="st1" d="M434.4,455.7h19.7l-0.3,2.1h-17.5l-1.6,12.8h15.7l-0.3,2.1h-15.7l-1.5,12.9h18.1l-0.3,2.1h-20.3L434.4,455.7z"
		/>
	<path class="st1" d="M477.7,459.8c-0.9-0.5-2.1-1-3.5-1.5c-1.4-0.5-2.8-0.8-4.2-0.8c-1.4,0-2.5,0.2-3.4,0.6
		c-0.9,0.4-1.6,0.9-2.2,1.5c-0.5,0.6-0.9,1.2-1.1,1.9c-0.2,0.6-0.4,1.2-0.4,1.7c0,1.1,0.3,2,0.9,2.7c0.6,0.8,1.5,1.5,2.6,2
		c1.1,0.6,2.2,1.2,3.4,1.7c1.3,0.6,2.5,1.2,3.7,1.9c1.2,0.7,2.2,1.6,2.9,2.7c0.7,1.1,1.1,2.5,1,4.3c0,1-0.3,2-0.7,3.1s-1,2.1-1.9,3
		c-0.8,0.9-1.9,1.7-3.2,2.3s-2.9,0.9-4.8,0.8c-1.6,0-3-0.2-4.3-0.6c-1.3-0.4-2.4-0.9-3.4-1.5s-1.8-1.2-2.5-1.8l1.2-1.7
		c0.6,0.6,1.4,1.2,2.4,1.7s2,1,3.2,1.3c1.2,0.3,2.3,0.5,3.6,0.6c1.8,0,3.3-0.4,4.5-1.1c1.2-0.7,2.1-1.6,2.7-2.8s1-2.3,1-3.4
		c0-1.3-0.3-2.4-0.9-3.3c-0.7-0.9-1.5-1.6-2.6-2.3s-2.2-1.2-3.3-1.7c-0.9-0.4-1.9-0.9-2.8-1.4s-1.8-1-2.5-1.7
		c-0.8-0.6-1.3-1.3-1.8-2.2c-0.4-0.8-0.6-1.8-0.5-2.9c0.1-1.6,0.5-3,1.4-4.1c0.9-1.2,2-2,3.4-2.7c1.4-0.6,2.9-0.9,4.6-0.9
		c1.1,0,2.1,0.2,3.2,0.4c1,0.2,2.1,0.5,3,0.9c1,0.4,1.8,0.8,2.6,1.3L477.7,459.8z"/>
	<path class="st1" d="M498.4,455.7h20.9l-0.3,2.2h-9.4l-3.6,29.8h-2.2l3.6-29.8h-9.3L498.4,455.7z"/>
	<path class="st1" d="M527,455.7h19.7l-0.3,2.1H529l-1.6,12.8h15.7l-0.3,2.1h-15.7l-1.5,12.9h18.1l-0.3,2.1h-20.3L527,455.7z"/>
	<path class="st1" d="M570.4,459.8c-0.9-0.5-2.1-1-3.5-1.5c-1.4-0.5-2.8-0.8-4.2-0.8c-1.4,0-2.5,0.2-3.4,0.6
		c-0.9,0.4-1.6,0.9-2.2,1.5c-0.5,0.6-0.9,1.2-1.1,1.9c-0.2,0.6-0.4,1.2-0.4,1.7c0,1.1,0.3,2,0.9,2.7c0.6,0.8,1.5,1.5,2.6,2
		c1.1,0.6,2.2,1.2,3.4,1.7c1.3,0.6,2.5,1.2,3.7,1.9c1.2,0.7,2.2,1.6,2.9,2.7c0.8,1.1,1.1,2.5,1,4.3c0,1-0.3,2-0.7,3.1
		c-0.4,1.1-1.1,2.1-1.9,3c-0.8,0.9-1.9,1.7-3.2,2.3c-1.3,0.6-2.9,0.9-4.8,0.8c-1.6,0-3-0.2-4.3-0.6c-1.3-0.4-2.4-0.9-3.4-1.5
		c-1-0.6-1.8-1.2-2.5-1.8l1.2-1.7c0.6,0.6,1.4,1.2,2.4,1.7c0.9,0.6,2,1,3.1,1.3c1.2,0.3,2.3,0.5,3.6,0.6c1.8,0,3.3-0.4,4.5-1.1
		s2.1-1.6,2.7-2.8s1-2.3,1-3.4c0-1.3-0.3-2.4-0.9-3.3c-0.7-0.9-1.5-1.6-2.6-2.3c-1.1-0.6-2.2-1.2-3.3-1.7c-0.9-0.4-1.9-0.9-2.8-1.4
		c-0.9-0.5-1.8-1-2.5-1.7c-0.8-0.6-1.3-1.3-1.8-2.2s-0.6-1.8-0.5-2.9c0.1-1.6,0.5-3,1.4-4.1c0.9-1.2,2-2,3.4-2.7
		c1.4-0.6,2.9-0.9,4.6-0.9c1.1,0,2.1,0.2,3.2,0.4c1,0.2,2.1,0.5,3,0.9c1,0.4,1.8,0.8,2.6,1.3L570.4,459.8z"/>
	<path class="st1" d="M577.1,455.7h20.9l-0.3,2.2h-9.4l-3.6,29.8h-2.2l3.6-29.8h-9.3L577.1,455.7z"/>
</g>
<g>
	<g>
		<path class="st1" d="M420.7,8c5.5,2.3,8.2,6.6,8.8,12.5c0.2,1.8,1.1,3.5,1,5.3c-0.2,5.1,3.4,6.3,7.1,7.5c0.8,0.3,2.1-0.1,2.9-0.6
			c3.3-2,6.4-4.3,9.6-6.3c5.2-3.3,10.2-2.9,14.7,1.4c2.7,2.5,5.3,5.2,7.9,7.9c4,4.3,4.4,9.2,1.2,14.2c-1.6,2.5-3.2,5.1-5,7.5
			c-2.1,2.7-2.7,5.1-1,8.4c1.1,2.2,2.3,3.3,4.6,3.6c3.5,0.6,7.1,1.3,10.6,2.1c5.5,1.3,8.7,5.2,8.8,10.8c0.1,3.8,0.1,7.7,0,11.5
			c-0.1,5.6-3.4,9.6-8.7,10.9c-3.5,0.8-7,1.6-10.6,2.1c-2.6,0.4-3.7,1.6-4.8,3.9c-1.4,3-1.1,5.2,0.8,7.8c2.1,2.6,3.9,5.5,5.6,8.4
			c2.7,4.5,2.2,9.4-1.3,13.3c-2.7,3-5.6,5.9-8.6,8.7c-4,3.7-8.9,4.1-13.6,1.3c-1.5-0.9-3-2-4.5-3c-1.5-1-3-1.9-4.8-3.1
			c-2.6,4.9-7.1,6.3-12,7.1c-4,0.7-8,1.8-12,2.4c-2.1,0.3-2.9,1.4-3.9,3.1c-3.4,5.7-2.7,10.5,1.7,15.4c2.2,2.4,3.7,5.3,5.4,8
			c3.3,5.4,2.8,10.9-1.6,15.5c-3.3,3.5-6.7,6.9-10.2,10.2c-4.7,4.4-10.4,4.9-15.8,1.4c-4.4-2.9-8.7-6-13.2-8.7
			c-1.1-0.7-2.8-0.7-4.1-0.4c-6.7,1.4-10,5.4-10.1,12.4c-0.1,2.9-1.1,5.9-1.7,8.8c-1.5,6.6-5.8,10.1-12.4,10.2
			c-4.6,0.1-9.1,0.1-13.7,0c-6.7-0.1-11.2-3.8-12.7-10.5c-1.1-5-1.9-10.1-3.1-15.2c-0.3-1.2-1.5-2.5-2.6-3.3
			c-5.6-3.9-10.9-3.2-15.9,1.5c-2.1,2-4.9,3.5-7.4,5c-5.7,3.5-11.3,3-16.1-1.6c-3.3-3.2-6.5-6.4-9.7-9.7c-4.7-4.9-5.2-10.6-1.5-16.4
			c2.7-4.2,5.5-8.4,8.4-12.6c1.2-1.6,0.9-3,0.5-4.9c-1.5-7.1-6.1-9.4-12.7-9.9c-3.2-0.2-6.4-1.1-9.5-2c-5.6-1.5-9-5.7-9.1-11.5
			c-0.2-5-0.2-10.1,0-15.1c0.2-6.1,3.7-10.3,9.7-11.7c5-1.1,10.1-2.1,15.1-3c2.2-0.4,3.1-1.6,4.3-3.5c3.5-5.7,2.5-10.3-1.7-15
			c-2.1-2.4-3.7-5.3-5.4-8c-3.2-5.3-2.7-11,1.5-15.5c3.4-3.6,6.8-7.1,10.4-10.4c4.5-4.2,10-4.7,15.2-1.4c4.4,2.7,8.6,5.6,12.8,8.6
			c1.8,1.3,3.3,1.2,5.5,0.6c6.4-1.6,9.1-5.6,9.4-11.9c0.2-3,1-5.9,1.6-8.8c1.4-6.8,6-10.6,12.9-10.7c3.2-0.1,6.5-0.3,9.7,0.1
			c4.8,0.5,8.3-0.9,11.5-4.6c4.4-5,9.6-5.2,15.2-1.6c2.7,1.8,5.4,3.6,8.1,5.4c4.4,3,9.9,0.6,10.9-4.6c0.4-2.2,1.1-4.4,1.3-6.7
			c0.6-5.8,3.3-10.1,8.7-12.5C409.2,8,414.9,8,420.7,8z M289.7,65.5c-3.8,3.6-7.2,6.9-10.7,10.2c3.7,5.6,7.5,11.3,11.3,16.9
			c2,2.9,2.1,5.6,0.5,8.7c-2,4-3.7,8-5.1,12.2c-1.1,3.5-3.2,5.4-6.7,6.1c-6,1.1-12,2.3-17.9,3.7c-0.9,0.2-2.3,1.2-2.3,1.9
			c-0.2,4.3-0.1,8.6-0.1,12.9c7.3,1.5,14.2,3,21.1,4.3c3.1,0.6,4.7,2.3,5.7,5.2c1.5,4.2,3,8.4,5,12.3c1.9,3.7,1.7,6.7-0.7,10
			c-3.9,5.4-7.5,11.1-10.7,15.9c3.7,3.7,7,7.1,10.4,10.6c5.4-3.6,11.3-7.4,17-11.4c2.7-1.9,5.2-1.9,8.1-0.5
			c3.5,1.7,7.1,3.8,10.8,4.7c5.3,1.3,7.4,4.3,8.2,9.4c0.9,6.1,2.4,12.1,3.6,18.3c4.2,0,8-0.1,11.9,0c2.2,0.1,2.8-0.8,3.2-2.8
			c1-5.9,2.4-11.7,3.5-17.6c0.6-3.7,2.6-5.6,6-6.7c4.1-1.3,8.1-3,11.9-4.9c3.4-1.8,6.2-1.6,9.3,0.6c5.6,3.9,11.3,7.6,17.2,11.6
			c2.8-2.9,5.3-5.8,8.2-8.4c1.8-1.6,1.5-2.8,0.3-4.5c-3.5-5-6.8-10.2-10.2-15.2c-1.8-2.7-1.9-5.2-0.4-8.1c1.9-3.7,3.8-7.5,4.9-11.5
			c1.3-4.7,4-6.6,8.5-7.4c6.3-1,12.6-2.5,19.1-3.8c0-4.1-0.1-7.8,0-11.5c0.1-2.2-0.5-3.2-2.8-3.6c-6-1-12-2.4-18-3.5
			c-3.3-0.6-5.2-2.4-6.3-5.6c-1.5-4.3-3.2-8.5-5.2-12.6c-1.6-3.2-1.6-5.8,0.4-8.7c4-5.7,7.7-11.5,11.4-17c-3.5-3.6-6.8-7-10.3-10.5
			c-5.7,3.8-11.5,7.6-17.2,11.6c-2.8,1.9-5.3,2-8.4,0.5c-4.2-2-8.5-3.8-12.9-5.3c-3.2-1.1-4.9-3.1-5.5-6.4c-1.1-6-2.3-12-3.6-18
			c-0.2-1-1.3-2.6-2.1-2.6c-4.3-0.3-8.5-0.1-12.8-0.1c-1.5,7.2-3,14-4.2,20.9c-0.6,3.4-2.5,5.2-5.6,6.3c-4.2,1.5-8.3,3-12.2,5.1
			c-3.4,1.8-6.2,1.6-9.3-0.6C300.5,72.6,294.9,69,289.7,65.5z M368,36.9c-4.4,3.6-4.5,3.6-3.5,8.7c0.4,2.2,1.2,4.5,1.3,6.7
			c0.2,6.2,2.8,10,9.1,11.6c2.3,0.6,3.8,0.7,5.8-0.6c7.3-4.8,14.2-9.6,23.4-11.5c26.6-5.5,50.4,17.2,44.7,43.8
			c-1.6,7.2-5.2,13.3-10.2,18.7c3.7,3.6,4.4,8,4.3,12.7c0,1.3,0.6,3.2,1.5,3.9c3.8,2.9,7.9,5.4,11.9,8.1c2.3-2.3,4.4-4.5,6.8-6.9
			c-2.8-4.2-5.6-8.6-8.6-12.8c-1.9-2.8-2.1-5.4-0.6-8.4c1.6-3.2,2.9-6.6,4.1-9.9c1-2.9,2.7-4.6,5.8-5.2c5.2-1,10.3-2.1,15.5-3.1
			c0-3.3,0-6.3,0-9.6c-5.2-1-10.4-2.1-15.5-3.1c-3-0.6-4.8-2.3-5.8-5.2c-1.2-3.4-2.5-6.7-4.1-9.9c-1.5-3-1.4-5.6,0.5-8.4
			c2.9-4.2,5.7-8.5,8.4-12.5c-2.3-2.5-4.4-4.9-6.6-7.2c-4.5,3-8.8,5.8-13.1,8.8c-2.7,1.9-5.2,1.8-8.1,0.4c-3.1-1.5-6.3-3-9.6-4
			c-3.4-1.1-5.1-3.1-5.7-6.6c-0.9-5-2-10-3-14.9c-3.5,0-6.5,0-9.6,0c-1.1,5.3-2.2,10.3-3.1,15.4c-0.6,3-2.3,4.8-5.1,5.9
			c-3.4,1.2-6.7,2.5-9.9,4.1c-3,1.5-5.6,1.4-8.4-0.5C376.5,42.5,372.2,39.7,368,36.9z M417,64.3c0.8,0.9,1.2,1.3,1.6,1.7
			c5.1,5.6,5.6,10.8,1.4,17.3c-1.8,2.7-3.4,5.6-5.4,8c-3.4,4-4.3,7.8-1.5,12.8c2.6,4.7,9.4,7.2,13.8,4c8.4-6,11.8-14.3,10.2-24.5
			C435.5,73.5,426.6,64.9,417,64.3z"/>
	</g>
	<g>
		<path class="st1" d="M325.7,8c1.2,0.2,2.3,0.5,3.5,0.7c3.5,0.6,5.7,3.1,5.5,6.4c-0.2,3.3-2.6,5.7-6.2,5.8c-2.7,0-5.5-0.5-8.2-0.5
			c-19.4-0.3-38.5,2.4-57.4,6.1c-12.2,2.4-24.4,5.2-36.1,9.2c-27.8,9.5-44,30.4-53.4,57.3c-3.4,9.7-5.7,19.8-8.8,29.6
			c-1.4,4.4-3.6,8.6-5.5,12.9c-1.5,3.5-1.2,6.5,1.9,9c1.2,1,2.3,2.1,3.5,3.1c7.4,6.3,9.2,14.5,5,23.2c-8.1,16.8-18,32.5-29.4,47.3
			c-5.5,7.1-5.7,6.3,2.4,11.5c2,1.3,4.2,2.2,6.3,3.4c10.1,5.9,13,15.1,8,25.8c-1.1,2.4-2.4,4.7-3.6,7c3,2.7,6.4,4.9,8.8,8
			c2.9,3.9-1,7.1-2.5,10.4c0.5,0.4,0.9,0.7,1.3,1c10.3,5.9,13.5,13.1,10.7,24.7c-1.3,5.5-1.3,10.9,0.7,16.3
			c2.3,6.1,7.4,9.2,13.7,7.3c20-6,40-12.2,60-18.5c9.3-3,18.6-6.3,27.7-9.9c4.4-1.7,8.6-4.3,12.5-6.9c4.7-3.1,7.6-7.4,8-13.4
			c0.2-3.8,3-5.9,6.5-5.6c3.3,0.2,5.5,2.7,5.5,6.4c0,7.1-2.8,13-7.7,18.1c-7.3,7.5-16.5,11.8-26.1,15.3c-6.3,2.3-12.6,4.4-19.5,6.8
			c10.2,11.6,17.4,24.6,21.5,38.9c46.3,0,92.3,0,138.4,0c0-0.7,0.1-1.1,0-1.3c-11-17.6-15.3-37.3-18.6-57.4
			c-3.6-22.2-1.9-43.8,6.6-64.7c4.5-11.2,11-21.3,18.3-30.8c9.1-11.8,17.7-23.9,21.6-38.7c0.4-1.4,0.7-2.8,1.1-4.2
			c1.2-3.3,4.3-4.9,7.4-4c3.2,0.9,5,3.9,4.3,7.3c-2.1,9.7-5.7,18.9-11,27.2c-4.3,6.8-8.9,13.4-13.8,19.8
			c-14.3,18.4-23.2,38.8-24,62.4c-0.6,16.2,2.5,32,6.5,47.6c2.9,11.5,7.2,22.3,14.1,32.1c1.7,2.4,3,5.2,4.1,8
			c1.9,4.8-0.7,8.8-5.9,8.9c-7.7,0.2-15.3,0.1-23,0.1c-0.6,0-1.2,0.2-1.7,0.4c-43.6,0-87.3,0-130.9,0c-1.5-2.3-3.3-4.5-4.4-7
			c-2.6-6.2-4.6-12.6-7.4-18.7c-3.3-7.2-7.7-13.8-13.9-19c-1.9-1.6-3.6-1.9-6.1-1.1c-16,4.9-32,9.9-48.1,14.3
			c-11.2,3.1-22.5-3.3-26.7-14.1c-3-7.8-3.8-15.7-1.6-24c1.7-6.6,0.9-8.2-5-11.7c-1-0.6-2.1-1.2-3.1-1.9c-3.8-2.3-5.4-5.7-4.6-10.1
			c0.3-2,0.9-3.9,1.4-5.9c-0.6-0.5-1.2-1-1.7-1.4c-7.9-6.2-8.4-9-3.5-17.9c0.2-0.4,0.5-0.8,0.7-1.3c5.1-9.3,4.7-10.9-4.7-15.7
			c-6.5-3.3-12.4-7.2-15.2-14.5c0-1.9,0-3.8,0-5.8c2.5-4,4.7-8.3,7.6-12c10.4-13.6,19.3-28,27-43.3c1.8-3.7,1.6-6.3-1.5-8.8
			c-0.7-0.5-1.2-1.2-1.8-1.7c-9.7-8.7-11.1-14.7-6.2-26.8c2.8-7.1,5.7-14.2,8.1-21.5c2-6.1,3-12.6,5.2-18.7
			c11.5-32.3,32-55.8,65.6-66.3c19.5-6.1,39.5-9.4,59.7-12.1c6.1-0.8,12.3-1.5,18.5-2.2C312.3,8,319,8,325.7,8z"/>
	</g>
	<g>
		<path class="st1" d="M192.1,116.7c-3.9-0.9-7.7-1.7-11.7-2.6c3.2-17.8,9.9-33.6,21.4-47.4c10.7-12.7,25-18.9,40.4-23.3
			c3.6-1,7.2-1.8,10.8-2.5c3.7-0.7,6.6,1.2,7.4,4.6c0.8,3.3-1,6.2-4.7,7.3c-6.4,1.8-13,3.3-19.3,5.4c-22.2,7.3-34,24.2-40.8,45.3
			C194.3,107.8,193.3,112.1,192.1,116.7z"/>
	</g>
	<g>
		<path class="st1" d="M178.8,143.3c-3.3,0-6.2-3-6.1-6.3c0.1-3.4,2.9-6,6.4-5.9c3.4,0.1,5.8,2.6,5.8,6
			C184.9,140.5,182.1,143.3,178.8,143.3z"/>
	</g>
	<g>
		<path class="st1" d="M344.6,174c-23.7,0-43.1-19.4-43-43.1c0.1-23.8,19.4-43,43.1-42.9c23.5,0,42.8,19.3,42.8,42.9
			C387.6,154.7,368.3,174,344.6,174z M344.7,161.7c16.9-0.1,30.6-13.8,30.6-30.7c0-17-14-30.8-31-30.7c-16.8,0.1-30.5,14.1-30.3,31
			C314.1,148.3,327.7,161.8,344.7,161.7z"/>
	</g>
	<g>
		<path class="st1" d="M344.4,124.9c3.3-0.1,6.3,2.8,6.3,6.1c0.1,3.2-2.6,6-5.8,6.1c-3.5,0.2-6.2-2.3-6.4-5.8
			C338.4,127.8,341,125,344.4,124.9z"/>
	</g>
</g>
</svg>
