<?xml version="1.0" encoding="utf-8"?>
<!-- Generator: Adobe Illustrator 24.1.0, SVG Export Plug-In . SVG Version: 6.00 Build 0)  -->
<svg version="1.1" id="Layer_1" xmlns="http://www.w3.org/2000/svg" xmlns:xlink="http://www.w3.org/1999/xlink" x="0px" y="0px"
	 viewBox="0 0 1001.9 171.7" style="enable-background:new 0 0 1001.9 171.7;" xml:space="preserve">
<style type="text/css">
	.st0{fill:#FFFFFF;}
</style>
<g>
	<path class="st0" d="M205.1,38.4c-1.5-0.8-3.1-1.5-4.8-2s-3.5-0.8-5.2-0.8c-2.3,0-4.2,0.5-5.7,1.6s-2.2,2.6-2.2,4.3
		c0,1.3,0.4,2.6,1.3,3.5c0.9,0.9,2,1.7,3.5,2.4c1.5,0.7,3,1.3,4.6,1.9c1.3,0.5,2.7,1.1,4,1.7c1.3,0.7,2.6,1.5,3.6,2.4
		c1.1,0.9,1.9,2.2,2.6,3.6c0.7,1.5,0.9,3.2,0.9,5.2c0,2.3-0.5,4.4-1.7,6.3c-1.2,1.9-2.8,3.4-5,4.4s-4.7,1.6-7.7,1.6
		c-1.9,0-3.8-0.3-5.5-0.7s-3.4-1.1-4.8-1.7c-1.5-0.7-2.8-1.5-4-2.2l2.6-4.6c0.9,0.7,2,1.3,3.4,2c1.2,0.7,2.6,1.1,3.9,1.5
		c1.3,0.4,2.7,0.5,4,0.5s2.7-0.3,4-0.8c1.3-0.5,2.4-1.3,3.4-2.3c0.9-1.1,1.3-2.4,1.3-4.2c0-1.5-0.4-2.7-1.2-3.8
		c-0.8-0.9-1.9-1.9-3.1-2.6c-1.3-0.7-2.7-1.3-4.2-1.9c-1.3-0.5-2.8-1.1-4.2-1.7c-1.5-0.7-2.7-1.3-3.9-2.3c-1.2-0.9-2.2-2-3-3.4
		c-0.7-1.3-1.1-3-1.1-4.8c0-2.3,0.5-4.3,1.6-6.1c1.1-1.7,2.7-3.1,4.6-4s4.2-1.5,6.7-1.6c2.8,0,5.4,0.4,7.5,1.1s4,1.5,5.8,2.6
		L205.1,38.4z"/>
	<path class="st0" d="M214.2,30.5h29.1v5.7h-11.7v38.2h-5.9V36.2h-11.4C214.2,36.2,214.2,30.5,214.2,30.5z"/>
	<path class="st0" d="M264.3,30.5c2.2,0,4.3,0.3,6.2,0.9c1.9,0.5,3.5,1.5,4.8,2.6c1.3,1.2,2.4,2.6,3.2,4.2c0.8,1.6,1.2,3.6,1.2,5.8
		c0,1.7-0.3,3.5-0.8,5.1c-0.5,1.6-1.3,3.1-2.6,4.6c-1.2,1.3-2.7,2.4-4.6,3.2c-1.9,0.8-4.2,1.2-7,1.2h-6.5v16.2h-5.9V30.5L264.3,30.5
		L264.3,30.5z M264.8,52.6c1.7,0,3.2-0.3,4.3-0.8c1.2-0.5,2-1.2,2.7-2s1.1-1.7,1.3-2.7c0.3-0.9,0.4-1.9,0.4-2.7
		c0-0.9-0.1-1.7-0.4-2.7c-0.3-0.9-0.8-1.9-1.5-2.7s-1.5-1.5-2.6-2c-1.1-0.5-2.4-0.8-3.9-0.8h-6.7v16.4H264.8z M272.1,55.8l11.4,18.4
		h-6.7l-11.6-18.2L272.1,55.8z"/>
	<path class="st0" d="M297.8,58.8c0,2,0.5,3.8,1.5,5.2c0.9,1.6,2.2,2.8,3.8,3.6c1.6,0.9,3.4,1.3,5.4,1.3s3.9-0.4,5.5-1.3
		c1.6-0.9,2.8-2.2,3.8-3.6c0.9-1.6,1.3-3.4,1.3-5.2V30.5h5.8v28.5c0,3.2-0.7,5.9-2.2,8.3c-1.5,2.4-3.5,4.2-5.9,5.5
		c-2.4,1.3-5.2,1.9-8.3,1.9s-5.8-0.7-8.3-1.9c-2.4-1.3-4.4-3.1-5.9-5.5c-1.5-2.4-2.2-5.1-2.2-8.3V30.5h5.8L297.8,58.8L297.8,58.8z"
		/>
	<path class="st0" d="M369,71.1c-0.7,0.5-1.7,1.1-3,1.6c-1.2,0.5-2.7,1.1-4.4,1.5c-1.6,0.4-3.5,0.5-5.5,0.5c-3.4,0-6.5-0.7-9.2-1.9
		s-5-2.8-7-4.8c-1.9-2-3.4-4.3-4.4-7c-1.1-2.7-1.5-5.5-1.5-8.5c0-3.2,0.5-6.3,1.6-9c1.1-2.8,2.6-5.1,4.6-7.3c1.9-2,4.2-3.6,6.9-4.7
		c2.7-1.1,5.5-1.7,8.7-1.7c2.6,0,5,0.4,7.1,1.1c2.2,0.7,4,1.5,5.5,2.6l-2.4,5.5c-1.2-0.8-2.7-1.6-4.4-2.3c-1.7-0.7-3.6-1.1-5.8-1.1
		s-4.2,0.4-6.1,1.2s-3.6,2-5,3.6c-1.3,1.6-2.6,3.4-3.4,5.4c-0.8,2-1.2,4.2-1.2,6.6c0,2.4,0.4,4.6,1.1,6.6c0.8,2,1.7,3.8,3.2,5.2
		c1.3,1.5,3.1,2.7,5.1,3.5c2,0.8,4.2,1.2,6.7,1.2c2.2,0,4.2-0.4,5.9-1.1c1.7-0.7,3.2-1.5,4.3-2.3L369,71.1z"/>
	<path class="st0" d="M375.6,30.5h29.1v5.7H393v38.2H387V36.2h-11.4V30.5z"/>
	<path class="st0" d="M419.3,58.8c0,2,0.5,3.8,1.5,5.2c0.9,1.6,2.2,2.8,3.8,3.6c1.6,0.9,3.4,1.3,5.4,1.3c2,0,3.9-0.4,5.5-1.3
		s2.8-2.2,3.8-3.6c0.9-1.6,1.3-3.4,1.3-5.2V30.5h5.8v28.5c0,3.2-0.7,5.9-2.2,8.3c-1.5,2.4-3.5,4.2-5.9,5.5c-2.4,1.3-5.2,1.9-8.3,1.9
		s-5.8-0.7-8.3-1.9c-2.4-1.3-4.4-3.1-5.9-5.5c-1.5-2.4-2.2-5.1-2.2-8.3V30.5h5.8L419.3,58.8L419.3,58.8z"/>
	<path class="st0" d="M470,30.5c2.2,0,4.3,0.3,6.2,0.9C478,32,479.6,33,481,34c1.3,1.2,2.4,2.6,3.2,4.2c0.8,1.6,1.2,3.6,1.2,5.8
		c0,1.7-0.3,3.5-0.8,5.1c-0.5,1.6-1.3,3.1-2.6,4.6c-1.2,1.3-2.7,2.4-4.6,3.2c-1.9,0.8-4.2,1.2-7,1.2H464v16.2h-5.9V30.5L470,30.5
		L470,30.5z M470.5,52.6c1.7,0,3.2-0.3,4.3-0.8c1.2-0.5,2-1.2,2.7-2s1.1-1.7,1.3-2.7c0.3-0.9,0.4-1.9,0.4-2.7c0-0.9-0.1-1.7-0.4-2.7
		c-0.3-0.9-0.8-1.9-1.5-2.7c-0.7-0.8-1.5-1.5-2.6-2c-1.1-0.5-2.4-0.8-3.9-0.8h-6.7v16.4H470.5z M477.8,55.8l11.4,18.4h-6.7
		l-11.6-18.2L477.8,55.8z"/>
	<path class="st0" d="M498.2,30.5h28.4v5.7h-22.5v13.3h20.2v5.7h-20.2v13.6h23.4v5.7h-29.3V30.5L498.2,30.5z"/>
	<path class="st0" d="M554.1,52.5c0-3,0.5-5.9,1.7-8.6c1.2-2.7,2.7-5.1,4.8-7.1c2-2,4.4-3.8,7.1-4.8c2.7-1.2,5.5-1.7,8.7-1.7
		c3.1,0,5.9,0.5,8.6,1.7c2.7,1.2,5.1,2.8,7.1,4.8c2,2,3.8,4.4,4.8,7.1c1.2,2.7,1.7,5.5,1.7,8.6s-0.5,6.1-1.7,8.7
		c-1.2,2.7-2.8,5.1-4.8,7.1c-2,2-4.4,3.6-7.1,4.8s-5.5,1.7-8.6,1.7s-6.1-0.5-8.7-1.7c-2.7-1.1-5.1-2.7-7.1-4.7c-2-2-3.6-4.4-4.8-7.1
		C554.7,58.5,554.1,55.6,554.1,52.5z M560.1,52.5c0,2.3,0.4,4.4,1.2,6.5s2,3.8,3.5,5.2c1.5,1.5,3.2,2.7,5.2,3.6
		c2,0.8,4.2,1.3,6.5,1.3c2.3,0,4.4-0.4,6.3-1.3c2-0.8,3.6-2,5.1-3.6c1.5-1.5,2.6-3.4,3.5-5.2c0.8-2,1.2-4.2,1.2-6.5
		c0-2.3-0.4-4.4-1.2-6.5c-0.8-2-2-3.8-3.5-5.4c-1.5-1.5-3.2-2.7-5.2-3.6c-2-0.8-4-1.3-6.3-1.3c-2.3,0-4.4,0.4-6.5,1.3
		c-2,0.9-3.8,2.2-5.2,3.6c-1.5,1.5-2.7,3.4-3.5,5.4C560.5,48,560.1,50.2,560.1,52.5z"/>
	<path class="st0" d="M608.7,30.5h26v5.7h-20.1v14h17.6v5.5h-17.6v18.6h-5.9V30.5z"/>
	<path class="st0" d="M663.5,30.5h5.9v43.7h-5.9V30.5z"/>
	<path class="st0" d="M719.9,75.6L686,41.3l1.7,0.4l0.1,32.6h-5.9V29.2h0.3l33.5,34.5l-1.3-0.3l-0.1-32.8h5.8v45.2h-0.1V75.6z"/>
	<path class="st0" d="M729.4,30.5h29.1v5.7h-11.7v38.2H741V36.2h-11.4v-5.7H729.4z"/>
	<path class="st0" d="M767.9,30.5h28.5v5.7h-22.6v13.3H794v5.7h-20.2v13.6h23.4v5.7h-29.3V30.5z"/>
	<path class="st0" d="M807.4,30.5h5.9v38.2h22.2v5.7h-28.1V30.5z"/>
	<path class="st0" d="M845,30.5h5.9v38.2h22.2v5.7H845L845,30.5L845,30.5z"/>
	<path class="st0" d="M882.7,30.5h28.5v5.7h-22.6v13.3h20.2v5.7h-20.2v13.6h23.4v5.7h-29.3L882.7,30.5L882.7,30.5z"/>
	<path class="st0" d="M954.3,71.1c-0.7,0.5-1.7,1.1-3,1.6c-1.2,0.5-2.7,1.1-4.4,1.5c-1.6,0.4-3.5,0.5-5.5,0.5
		c-3.4,0-6.5-0.7-9.2-1.9c-2.7-1.2-5-2.8-7-4.8c-1.9-2-3.4-4.3-4.4-7c-1.1-2.7-1.5-5.5-1.5-8.5c0-3.2,0.5-6.3,1.6-9
		c1.1-2.8,2.6-5.1,4.6-7.3c1.9-2,4.2-3.6,6.9-4.7c2.7-1.1,5.5-1.7,8.7-1.7c2.6,0,5,0.4,7.1,1.1c2.2,0.7,4,1.5,5.5,2.6l-2.4,5.5
		c-1.2-0.8-2.7-1.6-4.4-2.3c-1.7-0.7-3.6-1.1-5.8-1.1c-2.2,0-4.2,0.4-6.1,1.2c-1.9,0.8-3.6,2-5,3.6c-1.3,1.6-2.6,3.4-3.4,5.4
		c-0.8,2-1.2,4.2-1.2,6.6c0,2.4,0.4,4.6,1.1,6.6c0.8,2,1.7,3.8,3.2,5.2c1.3,1.5,3.1,2.7,5.1,3.5s4.2,1.2,6.7,1.2
		c2.2,0,4.2-0.4,5.9-1.1c1.7-0.7,3.2-1.5,4.3-2.3L954.3,71.1z"/>
	<path class="st0" d="M961,30.5h29.1v5.7h-11.7v38.2h-5.9V36.2H961V30.5z"/>
	<path class="st0" d="M213.2,104h3l-4.8,40.1h23.6l-0.4,2.8h-26.5L213.2,104z"/>
	<path class="st0" d="M248.2,104h26.5l-0.4,2.8h-23.4l-2.2,17.2h21.1l-0.4,2.8h-21.1l-2,17.4h24.4l-0.4,2.8h-27.3L248.2,104z"/>
	<path class="st0" d="M280.7,147h-3l23.7-44.8h0.3l12.7,44.8H311l-11-39.8l2.3-1.2L280.7,147z M288.7,130h19.1l0.5,2.8h-20.7
		L288.7,130z"/>
	<path class="st0" d="M339.4,104c1.6,0,3.1,0.3,4.7,0.7c1.5,0.4,3,1.2,4,2.2c1.2,0.9,2.2,2.3,2.7,3.8c0.7,1.5,0.8,3.4,0.5,5.5
		c-0.3,1.6-0.7,3.2-1.3,4.7c-0.7,1.5-1.6,2.8-2.8,4c-1.2,1.2-2.8,2.2-4.6,3c-1.9,0.7-4,1.1-6.6,1.1h-6.6l-2.3,18h-3l5.2-43.1h10V104
		z M336.3,126.1c2.8,0,5.1-0.5,6.9-1.5c1.7-1.1,3-2.3,3.8-3.8c0.8-1.5,1.3-3,1.5-4.4c0.1-1.3,0.1-2.6-0.3-3.6
		c-0.4-1.1-0.9-2.2-1.6-3c-0.8-0.8-1.7-1.6-3-2c-1.2-0.5-2.6-0.8-4-0.8h-7.3l-2.3,19.2h6.3V126.1z M342.2,127.4l9.6,19.5h-3.5
		l-9.6-19.5H342.2z"/>
	<path class="st0" d="M398.6,148L398.6,148l-29.2-38.5l0.7-0.4l-4.6,37.8h-2.8l5.4-43.9h0.1l29.2,38.8h-0.8l4.6-37.8h2.8L398.6,148z
		"/>
	<path class="st0" d="M417.9,104h3l-5.2,43.1h-3L417.9,104z"/>
	<path class="st0" d="M465.4,148L465.4,148l-29.2-38.5l0.7-0.4l-4.6,37.8h-2.8l5.4-43.9h0.1l29.2,38.8h-0.8l4.6-37.8h2.8L465.4,148z
		"/>
	<path class="st0" d="M512.2,144.8c-0.9,0.5-2.2,1.1-3.5,1.5c-1.3,0.4-2.8,0.8-4.4,0.9c-1.6,0.3-3.1,0.4-4.4,0.3
		c-2.2,0-4.3-0.3-6.2-0.8c-1.9-0.5-3.6-1.2-5.1-2.2s-3-2-4.2-3.2c-1.2-1.2-2.2-2.6-3-4.2c-0.8-1.5-1.3-3.2-1.7-4.8
		c-0.4-1.7-0.5-3.5-0.4-5.4c0.1-2.2,0.5-4.4,1.2-6.6c0.7-2.2,1.6-4.3,3-6.3c1.2-2,2.8-3.8,4.7-5.2c1.9-1.5,4-2.7,6.6-3.6
		c2.4-0.9,5.2-1.3,8.5-1.2c2.4,0,4.6,0.4,6.7,1.1c2.2,0.7,4,1.6,5.7,2.8l-1.3,2.6c-1.5-1.1-3.1-1.9-5.1-2.6c-2-0.7-3.9-0.9-5.9-0.9
		c-3,0-5.5,0.4-7.7,1.2c-2.3,0.8-4.2,1.9-5.8,3.4c-1.6,1.3-3,3-3.9,4.7c-1.1,1.7-1.7,3.6-2.3,5.4c-0.5,1.9-0.8,3.8-0.9,5.5
		c0,1.9,0.1,3.8,0.7,5.5c0.4,1.7,1.2,3.4,2.2,4.7c0.9,1.5,2.2,2.7,3.5,3.8c1.3,1.1,3,1.9,4.7,2.6c1.7,0.7,3.8,1.1,5.9,1.2
		c1.7,0.1,3.5,0,5.4-0.3c1.9-0.3,3.5-0.8,5-1.3l1.5-12.5h-9.7l0.4-2.8h12.8L512.2,144.8z"/>
	<path class="st0" d="M541.8,147h-3l23.7-44.8h0.3l12.7,44.8h-3.4l-11-39.8l2.3-1.2L541.8,147z M549.8,130h19.1l0.5,2.8h-20.6
		L549.8,130z"/>
	<path class="st0" d="M600.1,104c3.8,0,6.6,0.7,8.7,2.2c2.2,1.5,3.1,3.8,3.1,7c0,1.6-0.3,3.4-0.8,5.1c-0.5,1.7-1.3,3.4-2.7,4.7
		c-1.2,1.3-3,2.3-5.1,2.7v-0.3c1.5,0.3,2.8,0.8,4,1.5c1.2,0.7,2.3,1.9,3,3.1c0.8,1.2,1.2,2.8,1.2,4.6c0,2.2-0.4,3.9-1.1,5.5
		s-1.6,3-3,3.9c-1.2,1.1-2.7,1.7-4.4,2.3c-1.7,0.5-3.6,0.8-5.7,0.8h-12.1l5.2-43.1H600.1z M597.5,144.3c2.6,0,4.7-0.4,6.3-1.3
		c1.6-0.9,2.8-2.2,3.5-3.6c0.7-1.5,1.1-3.1,1.1-4.8c0-1.7-0.5-3.2-1.5-4.4c-0.9-1.2-2.2-2-3.6-2.4c-1.5-0.5-3-0.8-4.4-0.8h-8.2
		l-2,17.5H597.5z M599.3,124.1c2,0,3.6-0.4,4.8-1.2s2.2-1.7,2.8-2.8c0.7-1.1,1.1-2.3,1.3-3.4c0.3-1.2,0.4-2.2,0.4-2.8
		c0-2.6-0.8-4.3-2.3-5.4c-1.5-1.1-3.8-1.6-6.6-1.6h-6.6l-2.2,17.4h8.2V124.1z"/>
	<path class="st0" d="M626.5,104h3l-5.2,43.1h-3L626.5,104z"/>
	<path class="st0" d="M643.3,104h3l-4.8,40.1H665l-0.4,2.8H638L643.3,104z"/>
	<path class="st0" d="M678.3,104h3l-5.2,43.1h-3L678.3,104z"/>
	<path class="st0" d="M691.6,104h28.1l-0.4,3h-12.7l-4.8,40.1h-3l4.8-40.1h-12.5L691.6,104z"/>
	<path class="st0" d="M730.1,104h3l-5.2,43.1h-3L730.1,104z"/>
	<path class="st0" d="M746.9,104h26.5l-0.4,2.8h-23.6l-2.2,17.2h21.1l-0.4,2.8h-21.1l-2,17.4h24.4l-0.4,2.8h-27.3L746.9,104z"/>
	<path class="st0" d="M805.2,109.5c-1.2-0.7-2.8-1.3-4.7-2c-1.9-0.7-3.8-1.1-5.7-1.1c-1.9,0-3.4,0.3-4.6,0.8c-1.2,0.5-2.2,1.2-3,2
		c-0.7,0.8-1.2,1.6-1.5,2.6c-0.3,0.8-0.5,1.6-0.5,2.3c0,1.5,0.4,2.7,1.2,3.6c0.8,1.1,2,2,3.5,2.7c1.5,0.8,3,1.6,4.6,2.3
		c1.7,0.8,3.4,1.6,5,2.6c1.6,0.9,3,2.2,3.9,3.6c0.9,1.5,1.5,3.4,1.3,5.8c0,1.3-0.4,2.7-0.9,4.2c-0.5,1.5-1.3,2.8-2.6,4
		c-1.1,1.2-2.6,2.3-4.3,3.1c-1.7,0.8-3.9,1.2-6.5,1.1c-2.2,0-4-0.3-5.8-0.8s-3.2-1.2-4.6-2s-2.4-1.6-3.4-2.4l1.6-2.3
		c0.8,0.8,1.9,1.6,3.2,2.3c1.3,0.7,2.7,1.3,4.3,1.7c1.6,0.4,3.1,0.7,4.8,0.8c2.4,0,4.4-0.5,6.1-1.5c1.6-0.9,2.8-2.2,3.6-3.8
		c0.8-1.6,1.3-3.1,1.3-4.6c0-1.7-0.4-3.2-1.2-4.4c-0.9-1.2-2-2.2-3.5-3.1s-3-1.6-4.4-2.3c-1.2-0.5-2.6-1.2-3.8-1.9s-2.4-1.3-3.4-2.3
		c-1.1-0.8-1.7-1.7-2.4-3c-0.5-1.1-0.8-2.4-0.7-3.9c0.1-2.2,0.7-4,1.9-5.5c1.2-1.6,2.7-2.7,4.6-3.6c1.9-0.8,3.9-1.2,6.2-1.2
		c1.5,0,2.8,0.3,4.3,0.5c1.3,0.3,2.8,0.7,4,1.2c1.3,0.5,2.4,1.1,3.5,1.7L805.2,109.5z"/>
	<path class="st0" d="M833.1,104h28.1l-0.4,3h-12.7l-4.8,40.1h-3l4.8-40.1h-12.5L833.1,104z"/>
	<path class="st0" d="M871.6,104h26.5l-0.4,2.8h-23.4l-2.2,17.2h21.1l-0.4,2.8h-21.1l-2,17.4H894l-0.4,2.8h-27.3L871.6,104z"/>
	<path class="st0" d="M930,109.5c-1.2-0.7-2.8-1.3-4.7-2c-1.9-0.7-3.8-1.1-5.7-1.1s-3.4,0.3-4.6,0.8c-1.2,0.5-2.2,1.2-3,2
		c-0.7,0.8-1.2,1.6-1.5,2.6c-0.3,0.8-0.5,1.6-0.5,2.3c0,1.5,0.4,2.7,1.2,3.6c0.8,1.1,2,2,3.5,2.7c1.5,0.8,3,1.6,4.6,2.3
		c1.7,0.8,3.4,1.6,5,2.6c1.6,0.9,3,2.2,3.9,3.6c1.1,1.5,1.5,3.4,1.3,5.8c0,1.3-0.4,2.7-0.9,4.2c-0.5,1.5-1.5,2.8-2.6,4
		c-1.1,1.2-2.6,2.3-4.3,3.1c-1.7,0.8-3.9,1.2-6.5,1.1c-2.2,0-4-0.3-5.8-0.8s-3.2-1.2-4.6-2c-1.3-0.8-2.4-1.6-3.4-2.4l1.6-2.3
		c0.8,0.8,1.9,1.6,3.2,2.3c1.2,0.8,2.7,1.3,4.2,1.7c1.6,0.4,3.1,0.7,4.8,0.8c2.4,0,4.4-0.5,6.1-1.5c1.6-0.9,2.8-2.2,3.6-3.8
		c0.8-1.6,1.3-3.1,1.3-4.6c0-1.7-0.4-3.2-1.2-4.4c-0.9-1.2-2-2.2-3.5-3.1c-1.5-0.8-3-1.6-4.4-2.3c-1.2-0.5-2.6-1.2-3.8-1.9
		s-2.4-1.3-3.4-2.3c-1.1-0.8-1.7-1.7-2.4-3c-0.7-1.2-0.8-2.4-0.7-3.9c0.1-2.2,0.7-4,1.9-5.5c1.2-1.6,2.7-2.7,4.6-3.6
		c1.9-0.8,3.9-1.2,6.2-1.2c1.5,0,2.8,0.3,4.3,0.5c1.3,0.3,2.8,0.7,4,1.2c1.3,0.5,2.4,1.1,3.5,1.7L930,109.5z"/>
	<path class="st0" d="M939,104h28.1l-0.4,3h-12.7l-4.8,40.1h-3l4.8-40.1h-12.5L939,104z"/>
</g>
<g>
	<g>
		<path class="st0" d="M127.4,7.4c2.3,1,3.5,2.8,3.7,5.3c0.1,0.8,0.5,1.5,0.4,2.2c-0.1,2.2,1.4,2.7,3,3.2c0.3,0.1,0.9,0,1.2-0.3
			c1.4-0.8,2.7-1.8,4.1-2.7c2.2-1.4,4.3-1.2,6.2,0.6c1.1,1.1,2.2,2.2,3.3,3.3c1.7,1.8,1.9,3.9,0.5,6c-0.7,1.1-1.4,2.2-2.1,3.2
			c-0.9,1.1-1.1,2.2-0.4,3.5c0.5,0.9,1,1.4,1.9,1.5c1.5,0.3,3,0.5,4.5,0.9c2.3,0.5,3.7,2.2,3.7,4.6c0,1.6,0,3.3,0,4.9
			c0,2.4-1.4,4.1-3.7,4.6c-1.5,0.3-3,0.7-4.5,0.9c-1.1,0.2-1.6,0.7-2,1.6c-0.6,1.3-0.5,2.2,0.3,3.3c0.9,1.1,1.6,2.3,2.4,3.5
			c1.1,1.9,0.9,4-0.5,5.6c-1.1,1.3-2.4,2.5-3.6,3.7c-1.7,1.6-3.8,1.7-5.7,0.5c-0.6-0.4-1.3-0.8-1.9-1.3c-0.6-0.4-1.3-0.8-2-1.3
			c-1.1,2.1-3,2.7-5.1,3c-1.7,0.3-3.4,0.8-5.1,1c-0.9,0.1-1.2,0.6-1.6,1.3c-1.4,2.4-1.1,4.4,0.7,6.5c0.9,1,1.6,2.2,2.3,3.4
			c1.4,2.3,1.2,4.6-0.7,6.5c-1.4,1.5-2.8,2.9-4.3,4.3c-2,1.9-4.4,2.1-6.7,0.6c-1.9-1.2-3.7-2.5-5.6-3.7c-0.5-0.3-1.2-0.3-1.7-0.2
			c-2.8,0.6-4.2,2.3-4.3,5.2c0,1.2-0.5,2.5-0.7,3.7c-0.6,2.8-2.5,4.3-5.2,4.3c-1.9,0-3.8,0-5.8,0c-2.8,0-4.7-1.6-5.4-4.4
			c-0.5-2.1-0.8-4.3-1.3-6.4c-0.1-0.5-0.6-1.1-1.1-1.4c-2.4-1.6-4.6-1.4-6.7,0.6c-0.9,0.8-2.1,1.5-3.1,2.1c-2.4,1.5-4.8,1.3-6.8-0.7
			c-1.4-1.4-2.7-2.7-4.1-4.1c-2-2.1-2.2-4.5-0.6-6.9c1.1-1.8,2.3-3.5,3.5-5.3c0.5-0.7,0.4-1.3,0.2-2.1c-0.6-3-2.6-4-5.4-4.2
			c-1.4-0.1-2.7-0.5-4-0.8c-2.4-0.6-3.8-2.4-3.8-4.9c-0.1-2.1-0.1-4.3,0-6.4c0.1-2.6,1.6-4.4,4.1-4.9c2.1-0.5,4.3-0.9,6.4-1.3
			c0.9-0.2,1.3-0.7,1.8-1.5c1.5-2.4,1.1-4.4-0.7-6.3c-0.9-1-1.6-2.2-2.3-3.4c-1.4-2.2-1.1-4.6,0.6-6.5c1.4-1.5,2.9-3,4.4-4.4
			c1.9-1.8,4.2-2,6.4-0.6c1.9,1.1,3.6,2.4,5.4,3.6c0.8,0.5,1.4,0.5,2.3,0.3c2.7-0.7,3.8-2.4,4-5c0.1-1.3,0.4-2.5,0.7-3.7
			c0.6-2.9,2.5-4.5,5.4-4.5c1.4,0,2.7-0.1,4.1,0c2,0.2,3.5-0.4,4.9-1.9c1.9-2.1,4.1-2.2,6.4-0.7c1.1,0.8,2.3,1.5,3.4,2.3
			c1.9,1.3,4.2,0.3,4.6-1.9c0.2-0.9,0.5-1.9,0.5-2.8c0.3-2.5,1.4-4.3,3.7-5.3C122.5,7.4,124.9,7.4,127.4,7.4z M72,31.7
			c-1.6,1.5-3,2.9-4.5,4.3c1.6,2.4,3.2,4.8,4.8,7.1c0.8,1.2,0.9,2.4,0.2,3.7c-0.8,1.7-1.6,3.4-2.2,5.2c-0.5,1.5-1.4,2.3-2.8,2.6
			c-2.5,0.5-5.1,1-7.6,1.6c-0.4,0.1-1,0.5-1,0.8c-0.1,1.8,0,3.6,0,5.4c3.1,0.6,6,1.3,8.9,1.8c1.3,0.3,2,1,2.4,2.2
			c0.6,1.8,1.3,3.5,2.1,5.2c0.8,1.6,0.7,2.8-0.3,4.2c-1.6,2.3-3.2,4.7-4.5,6.7c1.6,1.6,3,3,4.4,4.5c2.3-1.5,4.8-3.1,7.2-4.8
			c1.1-0.8,2.2-0.8,3.4-0.2c1.5,0.7,3,1.6,4.6,2c2.2,0.5,3.1,1.8,3.5,4c0.4,2.6,1,5.1,1.5,7.7c1.8,0,3.4,0,5,0
			c0.9,0,1.2-0.3,1.4-1.2c0.4-2.5,1-4.9,1.5-7.4c0.3-1.6,1.1-2.4,2.5-2.8c1.7-0.5,3.4-1.3,5-2.1c1.4-0.8,2.6-0.7,3.9,0.3
			c2.4,1.6,4.8,3.2,7.3,4.9c1.2-1.2,2.2-2.5,3.5-3.5c0.8-0.7,0.6-1.2,0.1-1.9c-1.5-2.1-2.9-4.3-4.3-6.4c-0.8-1.1-0.8-2.2-0.2-3.4
			c0.8-1.6,1.6-3.2,2.1-4.9c0.5-2,1.7-2.8,3.6-3.1c2.7-0.4,5.3-1.1,8.1-1.6c0-1.7,0-3.3,0-4.9c0-0.9-0.2-1.4-1.2-1.5
			c-2.5-0.4-5.1-1-7.6-1.5c-1.4-0.3-2.2-1-2.7-2.4c-0.6-1.8-1.4-3.6-2.2-5.3c-0.7-1.4-0.7-2.5,0.2-3.7c1.7-2.4,3.3-4.9,4.8-7.2
			c-1.5-1.5-2.9-3-4.4-4.4c-2.4,1.6-4.9,3.2-7.3,4.9c-1.2,0.8-2.2,0.8-3.5,0.2c-1.8-0.8-3.6-1.6-5.4-2.2c-1.4-0.5-2.1-1.3-2.3-2.7
			c-0.5-2.5-1-5.1-1.5-7.6c-0.1-0.4-0.5-1.1-0.9-1.1c-1.8-0.1-3.6,0-5.4,0c-0.6,3-1.3,5.9-1.8,8.8c-0.3,1.4-1.1,2.2-2.4,2.7
			c-1.8,0.6-3.5,1.3-5.2,2.2c-1.4,0.8-2.6,0.7-3.9-0.3C76.6,34.7,74.2,33.1,72,31.7z M105.1,19.6c-1.9,1.5-1.9,1.5-1.5,3.7
			c0.2,0.9,0.5,1.9,0.5,2.8c0.1,2.6,1.2,4.2,3.8,4.9c1,0.3,1.6,0.3,2.5-0.3c3.1-2,6-4.1,9.9-4.9c11.2-2.3,21.3,7.3,18.9,18.5
			c-0.7,3-2.2,5.6-4.3,7.9c1.6,1.5,1.9,3.4,1.8,5.4c0,0.5,0.3,1.4,0.6,1.6c1.6,1.2,3.3,2.3,5,3.4c1-1,1.9-1.9,2.9-2.9
			c-1.2-1.8-2.4-3.6-3.6-5.4c-0.8-1.2-0.9-2.3-0.3-3.5c0.7-1.4,1.2-2.8,1.7-4.2c0.4-1.2,1.1-1.9,2.5-2.2c2.2-0.4,4.4-0.9,6.5-1.3
			c0-1.4,0-2.7,0-4.1c-2.2-0.4-4.4-0.9-6.5-1.3c-1.3-0.3-2-1-2.5-2.2c-0.5-1.4-1.1-2.8-1.7-4.2c-0.6-1.3-0.6-2.4,0.2-3.5
			c1.2-1.8,2.4-3.6,3.5-5.3c-1-1.1-1.9-2.1-2.8-3c-1.9,1.3-3.7,2.5-5.5,3.7c-1.1,0.8-2.2,0.8-3.4,0.2c-1.3-0.6-2.7-1.3-4.1-1.7
			c-1.4-0.5-2.2-1.3-2.4-2.8c-0.4-2.1-0.8-4.2-1.3-6.3c-1.5,0-2.7,0-4.1,0c-0.5,2.2-0.9,4.4-1.3,6.5c-0.3,1.3-1,2-2.2,2.5
			c-1.4,0.5-2.8,1.1-4.2,1.7c-1.3,0.6-2.4,0.6-3.5-0.2C108.7,21.9,106.9,20.8,105.1,19.6z M125.8,31.2c0.3,0.4,0.5,0.5,0.7,0.7
			c2.2,2.4,2.4,4.6,0.6,7.3c-0.8,1.1-1.4,2.4-2.3,3.4c-1.4,1.7-1.8,3.3-0.6,5.4c1.1,2,4,3,5.8,1.7c3.5-2.5,5-6,4.3-10.4
			C133.6,35,129.9,31.4,125.8,31.2z"/>
	</g>
	<g>
		<path class="st0" d="M87.3,7.4c0.5,0.1,1,0.2,1.5,0.3c1.5,0.3,2.4,1.3,2.3,2.7s-1.1,2.4-2.6,2.5c-1.1,0-2.3-0.2-3.5-0.2
			c-8.2-0.1-16.3,1-24.2,2.6c-5.2,1-10.3,2.2-15.3,3.9c-11.7,4-18.6,12.8-22.6,24.2c-1.4,4.1-2.4,8.4-3.7,12.5
			c-0.6,1.9-1.5,3.6-2.3,5.4c-0.6,1.5-0.5,2.7,0.8,3.8c0.5,0.4,1,0.9,1.5,1.3c3.1,2.7,3.9,6.1,2.1,9.8c-3.4,7.1-7.6,13.7-12.4,20
			c-2.3,3-2.4,2.7,1,4.9c0.8,0.5,1.8,0.9,2.7,1.4c4.3,2.5,5.5,6.4,3.4,10.9c-0.5,1-1,2-1.5,3c1.3,1.1,2.7,2.1,3.7,3.4
			c1.2,1.6-0.4,3-1.1,4.4c0.2,0.2,0.4,0.3,0.5,0.4c4.4,2.5,5.7,5.5,4.5,10.4c-0.5,2.3-0.5,4.6,0.3,6.9c1,2.6,3.1,3.9,5.8,3.1
			c8.4-2.5,16.9-5.2,25.3-7.8c3.9-1.3,7.9-2.7,11.7-4.2c1.9-0.7,3.6-1.8,5.3-2.9c2-1.3,3.2-3.1,3.4-5.7c0.1-1.6,1.3-2.5,2.7-2.4
			c1.4,0.1,2.3,1.1,2.3,2.7c0,3-1.2,5.5-3.3,7.6c-3.1,3.2-7,5-11,6.5c-2.7,1-5.3,1.9-8.2,2.9c4.3,4.9,7.4,10.4,9.1,16.4
			c19.6,0,39,0,58.5,0c0-0.3,0-0.5,0-0.5c-4.6-7.4-6.5-15.8-7.9-24.2c-1.5-9.4-0.8-18.5,2.8-27.3c1.9-4.7,4.6-9,7.7-13
			c3.8-5,7.5-10.1,9.1-16.3c0.2-0.6,0.3-1.2,0.5-1.8c0.5-1.4,1.8-2.1,3.1-1.7c1.4,0.4,2.1,1.6,1.8,3.1c-0.9,4.1-2.4,8-4.6,11.5
			c-1.8,2.9-3.8,5.7-5.8,8.4c-6,7.8-9.8,16.4-10.1,26.4c-0.3,6.8,1.1,13.5,2.7,20.1c1.2,4.9,3,9.4,6,13.6c0.7,1,1.3,2.2,1.7,3.4
			c0.8,2-0.3,3.7-2.5,3.8c-3.3,0.1-6.5,0-9.7,0c-0.3,0-0.5,0.1-0.7,0.2c-18.4,0-36.9,0-55.3,0c-0.6-1-1.4-1.9-1.9-3
			c-1.1-2.6-1.9-5.3-3.1-7.9c-1.4-3-3.3-5.8-5.9-8c-0.8-0.7-1.5-0.8-2.6-0.5c-6.8,2.1-13.5,4.2-20.3,6c-4.7,1.3-9.5-1.4-11.3-6
			c-1.3-3.3-1.6-6.6-0.7-10.1c0.7-2.8,0.4-3.5-2.1-4.9c-0.4-0.3-0.9-0.5-1.3-0.8c-1.6-1-2.3-2.4-1.9-4.3c0.1-0.8,0.4-1.6,0.6-2.5
			c-0.3-0.2-0.5-0.4-0.7-0.6c-3.3-2.6-3.5-3.8-1.5-7.6c0.1-0.2,0.2-0.3,0.3-0.5c2.2-3.9,2-4.6-2-6.6c-2.7-1.4-5.2-3-6.4-6.1
			c0-0.8,0-1.6,0-2.5c1.1-1.7,2-3.5,3.2-5.1c4.4-5.7,8.2-11.8,11.4-18.3c0.8-1.6,0.7-2.7-0.6-3.7c-0.3-0.2-0.5-0.5-0.8-0.7
			c-4.1-3.7-4.7-6.2-2.6-11.3c1.2-3,2.4-6,3.4-9.1c0.8-2.6,1.3-5.3,2.2-7.9c4.9-13.6,13.5-23.6,27.7-28c8.2-2.6,16.7-4,25.2-5.1
			c2.6-0.3,5.2-0.6,7.8-0.9C81.6,7.4,84.4,7.4,87.3,7.4z"/>
	</g>
	<g>
		<path class="st0" d="M30.8,53.3c-1.6-0.4-3.3-0.7-4.9-1.1c1.4-7.5,4.2-14.2,9-20c4.5-5.4,10.6-8,17.1-9.8c1.5-0.4,3-0.8,4.6-1.1
			c1.6-0.3,2.8,0.5,3.1,1.9c0.3,1.4-0.4,2.6-2,3.1c-2.7,0.8-5.5,1.4-8.2,2.3c-9.4,3.1-14.4,10.2-17.2,19.1
			C31.7,49.5,31.3,51.4,30.8,53.3z"/>
	</g>
	<g>
		<path class="st0" d="M25.2,64.5c-1.4,0-2.6-1.3-2.6-2.7c0-1.4,1.2-2.5,2.7-2.5c1.4,0,2.5,1.1,2.5,2.5
			C27.8,63.4,26.6,64.5,25.2,64.5z"/>
	</g>
	<g>
		<path class="st0" d="M95.2,77.5c-10,0-18.2-8.2-18.2-18.2c0-10.1,8.2-18.2,18.2-18.1c9.9,0,18.1,8.2,18.1,18.1
			C113.4,69.3,105.2,77.5,95.2,77.5z M95.3,72.3c7.1,0,12.9-5.8,12.9-13c0-7.2-5.9-13-13.1-13c-7.1,0-12.9,6-12.8,13.1
			C82.4,66.6,88.1,72.3,95.3,72.3z"/>
	</g>
	<g>
		<path class="st0" d="M95.2,56.8c1.4,0,2.7,1.2,2.7,2.6c0,1.4-1.1,2.5-2.5,2.6c-1.5,0.1-2.6-1-2.7-2.5C92.6,58,93.7,56.8,95.2,56.8
			z"/>
	</g>
</g>
</svg>
